<?xml version="1.0" encoding="utf-8"?>
<!-- Generator: Adobe Illustrator 25.0.0, SVG Export Plug-In . SVG Version: 6.00 Build 0)  -->
<svg version="1.1" id="Layer_1" xmlns="http://www.w3.org/2000/svg" xmlns:xlink="http://www.w3.org/1999/xlink" x="0px" y="0px"
	 viewBox="0 0 1510.3 1509" style="enable-background:new 0 0 1510.3 1509;" xml:space="preserve">
<style type="text/css">
	.st0{fill:#FFFFFF;}
</style>
<circle class="st0" cx="756.6" cy="754.5" r="754.5"/>
<path d="M420.3,551h259.2v20.6H444.1V727h221.4v20.6H444.1v170.6h238.1v20.6H420.3L420.3,551z M702.7,551h27.5l122,170.6L976.9,551
	l169.6-216.7L867.9,739.5l143.6,199.4h-28.6L852.2,757.5L721,938.9H693l144.7-199.4L702.7,551L702.7,551z M1021.8,571.7V551h295.3
	v20.6H1181v367.2h-23.8V571.7L1021.8,571.7L1021.8,571.7z M96.1,551h29.7l409.5,614.1L366,938.9L120.9,580.4l-1.1,358.5H96.1
	L96.1,551z M1314.7,912c-4.9,0-8.5-3.8-8.5-8.6c0-4.9,3.6-8.6,8.5-8.6c4.9,0,8.5,3.8,8.5,8.6C1323.2,908.3,1319.6,912,1314.7,912
	L1314.7,912z M1338,889.3h12.7c0.2,6.9,5.2,11.5,12.6,11.5c8.3,0,12.9-5,12.9-14.3v-59.1h12.9v59.2c0,16.8-9.7,26.5-25.8,26.5
	C1348.4,913.1,1338,903.7,1338,889.3L1338,889.3z M1406.2,888.6h12.8c1.1,7.9,8.8,13,20,13c10.4,0,18-5.4,18-12.8
	c0-6.4-4.8-10.2-15.9-12.8l-10.7-2.6c-15.1-3.5-22-10.8-22-23.1c0-14.9,12.1-24.8,30.3-24.8c16.9,0,29.3,9.9,30.1,24h-12.6
	c-1.2-7.7-7.9-12.5-17.6-12.5c-10.2,0-17,4.9-17,12.5c0,6,4.4,9.4,15.3,11.9l9.2,2.3c17.1,4,24.2,11,24.2,23.5c0,16-12.4,26-32.1,26
	C1419.5,913.1,1407.1,903.5,1406.2,888.6L1406.2,888.6z"/>
</svg>
